<svg width="105" height="128" viewBox="0 0 105 128" fill="none" xmlns="http://www.w3.org/2000/svg">
<path d="M0 0H43.7515C63.6367 0 78.8131 5.08042 89.2809 15.2413C99.7486 25.4021 104.988 40.6404 105 60.9562C105 105.646 84.5839 127.994 43.7515 128H0V0ZM16.9688 113.651H45.1332C48.1514 113.659 51.1663 113.45 54.1545 113.024C57.9535 112.342 61.6448 111.153 65.13 109.49C69.3807 107.633 73.2105 104.927 76.3868 101.538C79.4731 98.192 82.1812 93.2324 84.5106 86.6587C86.8401 80.0851 87.9989 72.3158 87.9871 63.3507C87.9871 47.3407 84.6837 35.183 78.0768 26.8777C71.4699 18.5723 60.6149 14.4196 45.5118 14.4196H16.9426L16.9688 113.651Z" fill="#100D0A"/>
</svg>
