<svg width="117" height="133" viewBox="0 0 117 133" fill="none" xmlns="http://www.w3.org/2000/svg">
<path d="M101.783 114.325C97.1415 120.506 90.935 125.35 83.7967 128.366C76.5321 131.465 68.7037 133.042 60.7994 132.999C48.5143 132.999 37.6583 129.972 28.2312 123.917C19.1167 118.192 11.7856 110.054 7.06007 100.416C2.31725 90.6493 -0.0976648 79.9259 0.00302412 69.0795C0.00302412 49.5046 5.31329 33.0948 15.9342 19.8498C26.555 6.60492 41.5279 -0.011685 60.8524 1.54905e-05C75.5546 1.54905e-05 87.8132 3.47212 97.6284 10.4163C107.444 17.3606 113.501 27.9553 115.8 42.2006H98.7929C97.1227 32.9455 92.8884 25.9721 86.0901 21.2802C79.2918 16.5883 70.8793 14.2482 60.8524 14.2599C46.4149 14.2599 35.4969 19.5252 28.0988 30.0556C20.7006 40.586 17.0015 53.3161 17.0015 68.2459C17.0015 82.2513 20.9094 94.2092 28.7251 104.119C36.5407 114.03 47.25 118.985 60.8524 118.985C73.7374 118.985 83.9083 115.068 91.3652 107.235C98.8222 99.4012 102.295 89.4793 101.783 77.4688H60.9758V63.2264H117V130.209H106.256L101.783 114.325Z" fill="#100D0A"/>
</svg>
