<svg width="103" height="128" viewBox="0 0 103 128" fill="none" xmlns="http://www.w3.org/2000/svg">
<path d="M0 0H59.8544C71.9593 0 81.4301 2.98854 88.2669 8.96558C95.1037 14.9426 98.5162 23.125 98.5045 33.5127C98.5045 41.6391 96.6929 48.5701 93.0696 54.3057C89.4463 60.0413 83.8856 63.922 76.3873 65.9477V66.3099C83.0427 67.6231 87.6757 70.4614 90.2864 74.825C92.897 79.1885 94.6178 85.1302 95.449 92.65C95.5719 93.8278 95.7212 96.2776 95.8968 99.9992C96.0724 103.709 96.2569 106.43 96.4325 108.152C96.6081 109.875 96.9328 112.189 97.4157 115.06C97.7873 117.594 98.5054 120.064 99.5495 122.4C100.479 124.396 101.637 126.275 103 128H84.1227C82.7003 126.454 81.8047 124.034 81.4886 120.748C81.1725 117.462 80.8565 113.399 80.6809 108.558C80.5833 104.505 80.1959 100.464 79.5219 96.466C79.0746 93.443 78.45 90.4493 77.6516 87.5004C76.9004 85.0121 75.8227 82.6356 74.4469 80.434C72.9949 78.0158 70.8097 76.1302 68.2129 75.0546C65.0619 73.8344 61.7018 73.2549 58.3267 73.3498H16.9545V128H0.0351549L0 0ZM52.1892 58.9607C61.2152 58.9607 68.3712 57.3178 73.6568 54.0319C78.9425 50.746 81.5765 44.8043 81.5589 36.2067C81.5589 29.3935 79.6887 24.0466 75.9483 20.166C72.208 16.2853 66.5361 14.3419 58.9325 14.3361H16.9545V58.9607H52.1892Z" fill="#100D0A"/>
</svg>
