<svg width="103" height="134" viewBox="0 0 103 134" fill="none" xmlns="http://www.w3.org/2000/svg">
<path d="M81.5108 40.4935C79.5886 23.0347 69.0017 14.3054 49.7502 14.3054C41.4953 14.3054 34.6468 16.0088 29.2045 19.4157C23.7622 22.8226 21.0381 28.4221 21.0322 36.2143C20.9664 38.2027 21.3343 40.1816 22.1101 42.0136C22.886 43.8457 24.0513 45.4872 25.5253 46.8239C28.9189 49.7964 32.9353 51.9715 37.2796 53.1897C42.5127 54.7851 47.8268 56.1013 53.1997 57.1329C59.0016 58.2705 64.8329 59.6468 70.6938 61.2619C76.2489 62.7595 81.6322 64.8337 86.7556 67.4508C91.6166 69.9749 95.6847 73.7936 98.5099 78.4848C101.499 83.3299 102.994 89.1593 102.994 95.9731C103.11 102.101 101.561 108.145 98.5099 113.461C95.6657 118.398 91.5839 122.508 86.667 125.388C81.6782 128.293 76.2993 130.469 70.6938 131.851C64.8844 133.292 58.9199 134.014 52.9343 134C37.6039 134 24.9532 130.169 14.9825 122.506C5.01182 114.844 0.017689 103.662 0 88.9618H16.15C16.15 99.1176 19.7379 106.801 26.9137 112.011C34.0895 117.222 42.934 119.821 53.4471 119.809C62.5333 119.809 70.2193 118.018 76.5047 114.434C82.7902 110.85 85.9301 104.87 85.9242 96.4947C85.9992 94.3228 85.6412 92.1577 84.8714 90.1253C84.1015 88.0929 82.9352 86.2337 81.44 84.6561C78.157 81.3761 74.1218 78.9479 69.6857 77.583C64.4482 75.869 59.1146 74.4638 53.7125 73.3745C47.9105 72.1956 42.079 70.8489 36.2181 69.334C30.6981 67.9608 25.3205 66.0692 20.1566 63.6844C15.3901 61.4791 11.3232 58.0042 8.40225 53.6406C5.41282 49.2199 3.91804 43.8385 3.91804 37.4963C3.91804 25.2952 8.46425 15.9971 17.5564 9.60182C26.6485 3.20656 37.5949 0.00589424 50.3958 0C64.2757 0 75.4788 3.38043 84.0048 10.1411C92.5309 16.9018 97.0475 27.037 97.5546 40.5466L81.5108 40.4935Z" fill="#100D0A"/>
</svg>
