<svg width="176" height="147" viewBox="0 0 176 147" fill="none" xmlns="http://www.w3.org/2000/svg">
<path d="M112.233 139.167C115.207 144.558 123.758 141.026 127.476 137.308C134.911 129.686 145.321 117.604 151.27 109.796C151.827 109.239 152.757 109.982 152.199 110.726C146.622 117.79 135.655 131.917 127.848 139.167C122.829 143.814 115.021 146.788 110.374 141.026C104.797 134.148 109.63 122.623 112.605 115.373C118.181 101.803 124.873 88.6048 131.937 75.7784C118.925 92.8802 105.913 109.796 90.2978 124.667C84.3493 130.244 78.029 135.821 70.9652 139.91C65.0167 143.256 57.767 145.859 51.2609 142.327C38.4344 135.263 45.6842 112.027 50.1455 100.688C59.44 77.4514 74.683 58.3047 87.5094 35.812C91.2272 29.12 93.272 20.9408 88.6247 14.0629C84.5352 7.55674 76.356 4.95428 68.9204 4.95428C53.1198 4.95428 38.2486 14.6206 28.0246 26.1457C22.8197 32.0942 18.1724 38.7863 14.2687 45.6642C10.3651 52.5421 7.39081 60.3495 7.39081 68.3428C7.94848 76.1501 11.2945 83.0281 20.0313 84.7011C27.8387 86.1882 35.6461 83.5857 41.9664 78.5667C47.7289 73.9195 52.9339 66.298 52.748 58.6765C52.748 54.9587 51.075 51.6127 47.3572 50.4973C43.8253 49.382 39.9216 50.6832 36.9473 53.2857C33.9731 55.8881 31.1847 62.5802 34.5308 63.8814C35.6461 64.4391 37.505 62.952 37.8768 62.2084C37.8768 64.625 37.1332 67.7851 34.159 69.4581C31.5565 70.7593 28.7682 70.0158 27.8387 66.6698C26.3516 59.7918 33.2295 52.3562 39.7357 49.9397C43.0817 48.6384 46.9854 48.2666 50.1455 50.3114C53.4915 52.5421 54.421 56.4458 54.0492 60.1636C53.3056 67.971 48.2866 75.0348 42.3381 79.8679C36.0179 85.0729 27.8387 87.6753 19.6596 86.9318C11.8522 86.3741 5.7178 81.9127 3.11534 74.4771C0.51288 67.4133 2.18589 59.2342 4.78835 52.5421C10.5509 37.6709 21.8902 25.2163 34.5308 16.1077C47.1713 7.18495 64.2732 0.492918 79.702 5.32605C87.1376 7.74262 93.0861 13.1334 94.945 20.7549C96.8039 28.1905 94.945 36.1838 91.7849 43.0617C81.1891 64.2532 68.5486 81.7268 57.9529 104.034C54.421 111.283 50.8891 118.719 49.402 126.712C48.4725 132.475 49.402 139.91 56.2799 141.583C63.9014 143.256 71.8946 137.866 77.6572 133.59C90.8554 123.366 101.451 111.283 112.233 98.6428C122.085 86.56 131.379 74.1054 140.116 61.0931C150.34 44.363 160.007 27.0752 171.346 11.0886C172.647 10.3451 174.506 10.7169 175.249 12.204C175.621 13.1334 175.435 14.0629 174.878 14.9923C164.84 33.7672 154.244 52.1703 143.834 70.7593C136.213 84.887 128.033 98.6428 119.854 112.399C116.508 118.161 108.143 131.545 112.233 139.167Z" fill="#100D0A"/>
</svg>
